<?xml version="1.0" encoding="UTF-8" standalone="no"?>
<!-- Created with Inkscape (http://www.inkscape.org/) -->
<svg
   xmlns:dc="http://purl.org/dc/elements/1.1/"
   xmlns:cc="http://web.resource.org/cc/"
   xmlns:rdf="http://www.w3.org/1999/02/22-rdf-syntax-ns#"
   xmlns:svg="http://www.w3.org/2000/svg"
   xmlns="http://www.w3.org/2000/svg"
   xmlns:sodipodi="http://sodipodi.sourceforge.net/DTD/sodipodi-0.dtd"
   xmlns:inkscape="http://www.inkscape.org/namespaces/inkscape"
   version="1.0"
   width="240"
   height="64"
   id="svg6218"
   sodipodi:version="0.32"
   inkscape:version="0.45.1"
   sodipodi:docname="Status_iucn3.1_CR_es.svg"
   inkscape:output_extension="org.inkscape.output.svg.inkscape"
   sodipodi:docbase="C:\wi\Taxones">
  <metadata
     id="metadata2361">
    <rdf:RDF>
      <cc:Work
         rdf:about="">
        <dc:format>image/svg+xml</dc:format>
        <dc:type
           rdf:resource="http://purl.org/dc/dcmitype/StillImage" />
      </cc:Work>
    </rdf:RDF>
  </metadata>
  <sodipodi:namedview
     inkscape:window-height="968"
     inkscape:window-width="1280"
     inkscape:pageshadow="2"
     inkscape:pageopacity="0.0"
     guidetolerance="10.0"
     gridtolerance="10.0"
     objecttolerance="10.0"
     borderopacity="1.0"
     bordercolor="#666666"
     pagecolor="#ffffff"
     id="base"
     inkscape:zoom="3.4584521"
     inkscape:cx="157.49337"
     inkscape:cy="32.448926"
     inkscape:window-x="0"
     inkscape:window-y="22"
     inkscape:current-layer="layer1" />
  <defs
     id="defs6220" />
  <g
     id="layer1">
    <path
       d="M 63.492313,47.161633 C 63.492313,53.597262 58.275205,58.81437 51.839577,58.81437 C 45.403948,58.81437 40.18684,53.597262 40.18684,47.161633 C 40.18684,40.726004 45.403948,35.508897 51.839577,35.508897 C 58.275205,35.508897 63.492313,40.726004 63.492313,47.161633 L 63.492313,47.161633 z "
       style="color:#000000;fill:#ffffff;fill-opacity:1;fill-rule:nonzero;stroke:#676767;stroke-width:0.47419986;stroke-linecap:round;stroke-linejoin:miter;marker:none;marker-start:none;marker-mid:none;marker-end:none;stroke-miterlimit:4;stroke-dasharray:none;stroke-dashoffset:0;stroke-opacity:1;visibility:visible;display:inline;overflow:visible"
       id="path13406" />
    <path
       d="M 43.153015,51.257181 L 43.153015,43.404739 L 49.148135,43.404739 L 49.148135,44.733119 L 44.785542,44.733119 L 44.785542,46.47394 L 48.844794,46.47394 L 48.844794,47.796964 L 44.785542,47.796964 L 44.785542,49.934157 L 49.302564,49.934157 L 49.302564,51.257181 L 43.153015,51.257181 z M 51.845112,51.257181 L 49.91476,43.404739 L 51.585892,43.404739 L 52.804772,48.798606 L 54.282869,43.404739 L 56.224251,43.404739 L 57.64168,48.889665 L 58.88262,43.404739 L 60.526176,43.404739 L 58.562733,51.257181 L 56.830933,51.257181 L 55.220468,45.386596 L 53.61552,51.257181 L 51.845112,51.257181 z "
       style="font-size:11.87358379px;font-style:normal;font-variant:normal;font-weight:bold;font-stretch:normal;text-align:center;line-height:125%;writing-mode:lr-tb;text-anchor:middle;fill:#333333;fill-opacity:1;stroke:none;stroke-width:1px;stroke-linecap:butt;stroke-linejoin:miter;stroke-opacity:1;display:inline;font-family:FreeSans"
       id="text13438" />
    <path
       d="M 152.64927,47.161633 C 152.64927,53.597262 147.43216,58.81437 140.99653,58.81437 C 134.5609,58.81437 129.3438,53.597262 129.3438,47.161633 C 129.3438,40.726004 134.5609,35.508897 140.99653,35.508897 C 147.43216,35.508897 152.64927,40.726004 152.64927,47.161633 L 152.64927,47.161633 z "
       style="color:#000000;fill:#ffffff;fill-opacity:1;fill-rule:nonzero;stroke:#676767;stroke-width:0.47419986;stroke-linecap:round;stroke-linejoin:miter;marker:none;marker-start:none;marker-mid:none;marker-end:none;stroke-miterlimit:4;stroke-dasharray:none;stroke-dashoffset:0;stroke-opacity:1;visibility:visible;display:inline;overflow:visible"
       id="path13412" />
    <path
       d="M 136.48232,51.257189 L 133.59231,43.404739 L 135.36271,43.404739 L 137.40889,49.216409 L 139.38888,43.404739 L 141.12068,43.404739 L 138.22516,51.257189 L 136.48232,51.257189 z M 141.9535,43.404739 L 143.58602,43.404739 L 143.58602,47.657703 C 143.58602,48.33261 143.60624,48.770046 143.64669,48.970015 C 143.71654,49.291401 143.88292,49.549399 144.14582,49.744012 C 144.40871,49.938628 144.76813,50.035935 145.22407,50.035934 C 145.68734,50.035935 146.03664,49.943984 146.27197,49.760081 C 146.50728,49.57618 146.64884,49.35032 146.69664,49.082499 C 146.74444,48.814683 146.76833,48.370104 146.76834,47.748761 L 146.76834,43.404739 L 148.40086,43.404739 L 148.40086,47.52915 C 148.40086,48.471874 148.35675,49.13785 148.2685,49.527079 C 148.18025,49.91631 148.01755,50.244834 147.7804,50.512652 C 147.54324,50.780471 147.22611,50.993834 146.82901,51.15274 C 146.43191,51.311645 145.91347,51.391097 145.2737,51.391097 C 144.50155,51.391097 143.91601,51.304504 143.51707,51.131313 C 143.11814,50.958124 142.80285,50.733157 142.57121,50.45641 C 142.33956,50.179665 142.18697,49.889527 142.11343,49.585998 C 142.0068,49.136066 141.9535,48.471874 141.9535,47.593426 L 141.9535,43.404739 z "
       style="font-size:11.87359333px;font-style:normal;font-variant:normal;font-weight:bold;font-stretch:normal;text-align:center;line-height:125%;writing-mode:lr-tb;text-anchor:middle;fill:#333333;fill-opacity:1;stroke:none;stroke-width:1px;stroke-linecap:butt;stroke-linejoin:miter;stroke-opacity:1;display:inline;font-family:FreeSans"
       id="text13426" />
    <path
       d="M 122.9303,47.161633 C 122.9303,53.597262 117.71319,58.81437 111.27756,58.81437 C 104.84193,58.81437 99.624826,53.597262 99.624826,47.161633 C 99.624826,40.726004 104.84193,35.508897 111.27756,35.508897 C 117.71319,35.508897 122.9303,40.726004 122.9303,47.161633 L 122.9303,47.161633 z "
       style="color:#000000;fill:#ffffff;fill-opacity:1;fill-rule:nonzero;stroke:#676767;stroke-width:0.47428361;stroke-linecap:round;stroke-linejoin:miter;marker:none;marker-start:none;marker-mid:none;marker-end:none;stroke-miterlimit:4;stroke-dasharray:none;stroke-dashoffset:0;stroke-opacity:1;visibility:visible;display:inline;overflow:visible"
       id="path13410" />
    <path
       d="M 104.28973,51.257189 L 104.28973,43.40474 L 110.28485,43.40474 L 110.28485,44.733122 L 105.92226,44.733122 L 105.92226,46.473944 L 109.98151,46.473944 L 109.98151,47.796969 L 105.92226,47.796969 L 105.92226,49.934163 L 110.43928,49.934163 L 110.43928,51.257189 L 104.28973,51.257189 z M 111.8512,51.257189 L 111.8512,43.40474 L 113.43961,43.40474 L 116.74878,48.648633 L 116.74878,43.40474 L 118.26548,43.40474 L 118.26548,51.257189 L 116.62744,51.257189 L 113.36791,46.136492 L 113.36791,51.257189 L 111.8512,51.257189 z "
       style="font-size:11.87359142px;font-style:normal;font-variant:normal;font-weight:bold;font-stretch:normal;text-align:center;line-height:125%;writing-mode:lr-tb;text-anchor:middle;fill:#333333;fill-opacity:1;stroke:none;stroke-width:1px;stroke-linecap:butt;stroke-linejoin:miter;stroke-opacity:1;display:inline;font-family:FreeSans"
       id="text13430" />
    <path
       d="M 93.211302,47.161633 C 93.211302,53.597262 87.994193,58.81437 81.558565,58.81437 C 75.122936,58.81437 69.905828,53.597262 69.905828,47.161633 C 69.905828,40.726004 75.122936,35.508897 81.558565,35.508897 C 87.994193,35.508897 93.211302,40.726004 93.211302,47.161633 L 93.211302,47.161633 z "
       style="color:#000000;fill:#cc3333;fill-opacity:1;fill-rule:nonzero;stroke:#676767;stroke-width:0.47419986;stroke-linecap:round;stroke-linejoin:miter;marker:none;marker-start:none;marker-mid:none;marker-end:none;stroke-miterlimit:4;stroke-dasharray:none;stroke-dashoffset:0;stroke-opacity:1;visibility:visible;display:inline;overflow:visible"
       id="path13408" />
    <path
       d="M 79.156691,48.370104 L 80.739579,48.857534 C 80.496899,49.714555 80.093364,50.35107 79.528973,50.76708 C 78.964569,51.183092 78.248501,51.391097 77.380768,51.391097 C 76.307122,51.391097 75.424677,51.034899 74.733429,50.322501 C 74.04218,49.610106 73.696554,48.636139 73.696554,47.400599 C 73.696554,46.09365 74.044017,45.078618 74.738945,44.355501 C 75.433869,43.632399 76.347567,43.270844 77.480043,43.270836 C 78.469113,43.270844 79.272506,43.554732 79.890225,44.122498 C 80.257904,44.458172 80.533668,44.940246 80.717517,45.56872 L 79.101539,45.943666 C 79.005934,45.536587 78.806464,45.215206 78.50313,44.979519 C 78.199784,44.743846 77.831179,44.626005 77.397314,44.625998 C 76.797982,44.626005 76.311718,44.834903 75.93852,45.252694 C 75.565316,45.670497 75.378716,46.347184 75.378718,47.282759 C 75.378716,48.275477 75.562558,48.982517 75.930247,49.403884 C 76.297929,49.825253 76.775922,50.035937 77.364222,50.035935 C 77.798087,50.035937 78.171288,49.902027 78.483826,49.634208 C 78.796353,49.366391 79.020642,48.945023 79.156691,48.370104 L 79.156691,48.370104 z M 82.151493,51.257189 L 82.151493,43.404745 L 85.587518,43.404745 C 86.451575,43.404753 87.079399,43.475279 87.470989,43.616322 C 87.862569,43.75738 88.176021,44.008237 88.411346,44.368892 C 88.646659,44.729561 88.764318,45.142001 88.764325,45.606215 C 88.764318,46.195421 88.585991,46.681958 88.229343,47.065826 C 87.87268,47.449703 87.339536,47.691633 86.629909,47.791616 C 86.982881,47.991589 87.274272,48.211201 87.504082,48.450449 C 87.733879,48.689703 88.043654,49.114641 88.433408,49.725266 L 89.420645,51.257189 L 87.468232,51.257189 L 86.28796,49.548505 C 85.868794,48.937881 85.581999,48.553115 85.427575,48.394207 C 85.273143,48.235304 85.109523,48.126391 84.936715,48.067468 C 84.763898,48.008551 84.489973,47.979092 84.114936,47.979088 L 83.784018,47.979088 L 83.784018,51.257189 L 82.151493,51.257189 z M 83.784018,46.725697 L 84.991867,46.725697 C 85.775033,46.7257 86.264055,46.693563 86.458935,46.629282 C 86.653802,46.56501 86.806393,46.454311 86.916703,46.297187 C 87.027003,46.140072 87.082156,45.943672 87.082162,45.707985 C 87.082156,45.443744 87.009538,45.230382 86.864308,45.067898 C 86.719067,44.905428 86.514083,44.802765 86.249354,44.759908 C 86.116981,44.74206 85.719881,44.733132 85.058051,44.733126 L 83.784018,44.733126 L 83.784018,46.725697 z "
       style="font-size:11.87358379px;font-style:normal;font-variant:normal;font-weight:bold;font-stretch:normal;text-align:center;line-height:125%;writing-mode:lr-tb;text-anchor:middle;fill:#ffcccc;fill-opacity:1;stroke:none;stroke-width:1px;stroke-linecap:butt;stroke-linejoin:miter;stroke-opacity:1;display:inline;font-family:FreeSans"
       id="text13442" />
    <path
       d="M 33.773334,47.161633 C 33.773334,53.597262 28.556226,58.81437 22.120598,58.81437 C 15.684969,58.81437 10.467861,53.597262 10.467861,47.161633 C 10.467861,40.726004 15.684969,35.508897 22.120598,35.508897 C 28.556226,35.508897 33.773334,40.726004 33.773334,47.161633 L 33.773334,47.161633 z "
       style="color:#000000;fill:#ffffff;fill-opacity:1;fill-rule:nonzero;stroke:#676767;stroke-width:0.47419986;stroke-linecap:round;stroke-linejoin:miter;marker:none;marker-start:none;marker-mid:none;marker-end:none;stroke-miterlimit:4;stroke-dasharray:none;stroke-dashoffset:0;stroke-opacity:1;visibility:visible;display:inline;overflow:visible"
       id="path13404" />
    <path
       d="M 15.000365,51.257181 L 15.000365,43.404736 L 20.995486,43.404736 L 20.995486,44.733116 L 16.632891,44.733116 L 16.632891,46.473938 L 20.692145,46.473938 L 20.692145,47.796963 L 16.632891,47.796963 L 16.632891,49.934157 L 21.149914,49.934157 L 21.149914,51.257181 L 15.000365,51.257181 z M 21.723504,51.257181 L 24.486666,47.159555 L 21.982724,43.404736 L 23.891014,43.404736 L 25.51251,45.927588 L 27.100914,43.404736 L 28.992659,43.404736 L 26.477686,47.218474 L 29.240847,51.257181 L 27.271888,51.257181 L 25.479418,48.5415 L 23.681433,51.257181 L 21.723504,51.257181 z "
       style="font-size:11.87358856px;font-style:normal;font-variant:normal;font-weight:bold;font-stretch:normal;text-align:center;line-height:125%;writing-mode:lr-tb;text-anchor:middle;fill:#333333;fill-opacity:1;stroke:none;stroke-width:1px;stroke-linecap:butt;stroke-linejoin:miter;stroke-opacity:1;display:inline;font-family:FreeSans"
       id="text13434" />
    <text
       x="22.188875"
       y="20.811575"
       transform="scale(1.014726,0.985488)"
       style="font-size:10.84811878px;font-style:normal;font-variant:normal;font-weight:normal;font-stretch:normal;text-align:end;line-height:125%;writing-mode:lr-tb;text-anchor:end;fill:#333333;fill-opacity:1;stroke:none;stroke-width:1px;stroke-linecap:butt;stroke-linejoin:miter;stroke-opacity:1;display:inline;font-family:Bitstream Vera Sans"
       id="text8575"
       xml:space="preserve"
       sodipodi:linespacing="125%"><tspan
         x="22.188875"
         y="20.811575"
         style="text-align:center;text-anchor:middle;fill:#333333"
         id="tspan8579">Extinto</tspan></text>
    <path
       d="M 80.490456,31.420456 C 77.405575,31.420462 74.979923,31.634703 73.213493,32.063183 C 71.447184,32.49167 70.203255,33.213574 69.481705,34.228893 C 69.481785,32.831664 69.973142,31.758126 70.955745,31.008273 C 71.938521,30.258432 73.474775,29.739128 75.564508,29.45036 C 77.654356,29.161606 80.465618,29.017226 83.998299,29.017218 L 100.1942,29.017218 C 102.35868,29.017226 104.07529,28.95668 105.34403,28.835579 C 106.61287,28.714492 107.7573,28.430388 108.77727,27.983268 C 110.07099,27.275346 110.78004,26.646591 110.90438,26.097004 C 111.52638,27.019186 112.69567,27.745746 114.41225,28.276687 C 116.05427,28.770381 118.50479,29.017226 121.76385,29.017218 L 140.08686,29.017218 C 145.33621,29.017226 148.80675,29.455024 150.49849,30.330616 C 152.2151,31.168961 153.0734,32.468383 153.07342,34.228893 C 152.1529,33.166998 150.86544,32.433454 149.21103,32.028253 C 147.55661,31.62306 145.18693,31.420462 142.102,31.420456 L 123.44314,31.420456 C 119.76115,31.420462 116.94367,31.203891 114.99069,30.770745 C 113.03774,30.337608 111.67567,29.506255 110.90438,28.276687 C 110.18294,29.543516 108.78352,30.384182 106.70615,30.798689 C 104.62883,31.213205 101.59986,31.420462 97.619277,31.420456 L 80.490456,31.420456 z "
       style="font-size:110.84521484px;font-style:normal;font-weight:normal;fill:#333333;fill-opacity:1;stroke:none;stroke-width:1px;stroke-linecap:butt;stroke-linejoin:miter;stroke-opacity:1;display:inline;font-family:Bitstream Vera Sans"
       id="JasmineUPC_bracket" />
    <text
       x="110.65692"
       y="20.811567"
       transform="scale(1.0147258,0.9854879)"
       style="font-size:10.84813213px;font-style:normal;font-variant:normal;font-weight:normal;font-stretch:normal;text-align:end;line-height:125%;writing-mode:lr-tb;text-anchor:end;fill:#333333;fill-opacity:1;stroke:none;stroke-width:1px;stroke-linecap:butt;stroke-linejoin:miter;stroke-opacity:1;display:inline;font-family:Bitstream Vera Sans"
       id="text2194"
       xml:space="preserve"
       sodipodi:linespacing="125%"><tspan
         x="110.65692"
         y="20.811567"
         style="text-align:center;text-anchor:middle;fill:#333333"
         id="tspan2202">Amenazado</tspan></text>
    <path
       d="M 200.43454,25.789288 L 200.43454,32.51869"
       style="fill:#333333;fill-rule:evenodd;stroke:#333333;stroke-width:0.93749213px;stroke-linecap:butt;stroke-linejoin:miter;stroke-opacity:1;display:inline"
       id="path1914" />
    <path
       d="M 22.120598,25.789288 L 22.120598,32.518689"
       style="fill:#333333;fill-rule:evenodd;stroke:#333333;stroke-width:0.93749213px;stroke-linecap:butt;stroke-linejoin:miter;stroke-opacity:1;display:inline"
       id="path1917" />
    <path
       d="M 182.36824,47.16168 C 182.36824,53.597309 177.15113,58.814417 170.7155,58.814417 C 164.27987,58.814417 159.06276,53.597309 159.06276,47.16168 C 159.06276,40.726051 164.27987,35.508944 170.7155,35.508944 C 177.15113,35.508944 182.36824,40.726051 182.36824,47.16168 L 182.36824,47.16168 z "
       style="color:#000000;fill:#ffffff;fill-opacity:1;fill-rule:nonzero;stroke:#676767;stroke-width:0.47419986;stroke-linecap:round;stroke-linejoin:miter;marker:none;marker-start:none;marker-mid:none;marker-end:none;stroke-miterlimit:4;stroke-dasharray:none;stroke-dashoffset:0;stroke-opacity:1;visibility:visible;display:inline;overflow:visible"
       id="path13414" />
    <path
       d="M 164.03654,51.257181 L 164.03654,43.404727 L 165.62494,43.404727 L 168.93413,48.648624 L 168.93413,43.404727 L 170.45082,43.404727 L 170.45082,51.257181 L 168.81279,51.257181 L 165.55324,46.136482 L 165.55324,51.257181 L 164.03654,51.257181 z M 174.00268,51.257181 L 174.00268,44.73311 L 171.60352,44.73311 L 171.60352,43.404727 L 178.02884,43.404727 L 178.02884,44.73311 L 175.63521,44.73311 L 175.63521,51.257181 L 174.00268,51.257181 z "
       style="font-size:11.87360096px;font-style:normal;font-variant:normal;font-weight:bold;font-stretch:normal;text-align:center;line-height:125%;writing-mode:lr-tb;text-anchor:middle;fill:#333333;fill-opacity:1;stroke:none;stroke-width:1px;stroke-linecap:butt;stroke-linejoin:miter;stroke-opacity:1;display:inline;font-family:FreeSans"
       id="text1899" />
    <g
       transform="translate(-7.052812,8.273199)"
       id="g3041">
      <text
         x="204.6432"
         y="6.4210806"
         transform="scale(1.014726,0.985488)"
         style="font-size:10.84812069px;font-style:normal;font-variant:normal;font-weight:normal;font-stretch:normal;text-align:end;line-height:125%;writing-mode:lr-tb;text-anchor:end;fill:#333333;fill-opacity:1;stroke:none;stroke-width:1px;stroke-linecap:butt;stroke-linejoin:miter;stroke-opacity:1;display:inline;font-family:Bitstream Vera Sans"
         id="text2145"
         xml:space="preserve"
         sodipodi:linespacing="125%"><tspan
           x="204.6432"
           y="6.4210806"
           style="text-align:center;text-anchor:middle;fill:#333333"
           id="tspan3029">Preocupación</tspan></text>
      <text
         x="205.1093"
         y="14.440681"
         transform="scale(1.014726,0.985488)"
         style="font-size:10.84811878px;font-style:normal;font-variant:normal;font-weight:normal;font-stretch:normal;text-align:end;line-height:125%;writing-mode:lr-tb;text-anchor:end;fill:#333333;fill-opacity:1;stroke:none;stroke-width:1px;stroke-linecap:butt;stroke-linejoin:miter;stroke-opacity:1;display:inline;font-family:Bitstream Vera Sans"
         id="text3037"
         xml:space="preserve"
         sodipodi:linespacing="125%"><tspan
           x="205.1093"
           y="14.440681"
           style="text-align:center;text-anchor:middle;fill:#333333"
           id="tspan3039">menor</tspan></text>
    </g>
    <path
       d="M 212.08721,47.161643 C 212.08721,53.59727 206.8701,58.814379 200.43447,58.814379 C 193.99884,58.814379 188.78173,53.59727 188.78173,47.161643 C 188.78173,40.726014 193.99884,35.508906 200.43447,35.508906 C 206.8701,35.508906 212.08721,40.726014 212.08721,47.161643 L 212.08721,47.161643 z "
       style="color:#000000;fill:#ffffff;fill-opacity:1;fill-rule:nonzero;stroke:#676767;stroke-width:0.47419986;stroke-linecap:round;stroke-linejoin:miter;marker:none;marker-start:none;marker-mid:none;marker-end:none;stroke-miterlimit:4;stroke-dasharray:none;stroke-dashoffset:0;stroke-opacity:1;visibility:visible;display:inline;overflow:visible"
       id="path2072" />
    <path
       d="M 193.62591,51.257192 L 193.62591,43.46901 L 195.25844,43.46901 L 195.25844,49.934165 L 199.3177,49.934165 L 199.3177,51.257192 L 193.62591,51.257192 z M 205.6603,48.370101 L 207.2432,48.857532 C 207.00051,49.714556 206.59697,50.351072 206.03258,50.767083 C 205.46818,51.183096 204.7521,51.391101 203.88437,51.391101 C 202.81072,51.391101 201.92827,51.034902 201.23702,50.322502 C 200.54577,49.610106 200.20014,48.636138 200.20014,47.400595 C 200.20014,46.093643 200.54762,45.078609 201.24254,44.355492 C 201.93746,43.632388 202.85117,43.270832 203.98365,43.270824 C 204.97272,43.270832 205.77611,43.55472 206.39384,44.122488 C 206.76151,44.458163 207.03727,44.940237 207.22112,45.568712 L 205.60514,45.943659 C 205.50954,45.536581 205.31007,45.215197 205.00673,44.979511 C 204.70339,44.743836 204.33478,44.625996 203.90091,44.625989 C 203.30158,44.625996 202.81532,44.834894 202.44212,45.252686 C 202.06891,45.670489 201.88232,46.347179 201.88232,47.282754 C 201.88232,48.275474 202.06616,48.982517 202.43385,49.403884 C 202.80153,49.825254 203.27953,50.035938 203.86783,50.035936 C 204.30169,50.035938 204.67489,49.902028 204.98743,49.634208 C 205.29995,49.366391 205.52425,48.945022 205.6603,48.370101 L 205.6603,48.370101 z "
       style="font-size:11.87360668px;font-style:normal;font-variant:normal;font-weight:bold;font-stretch:normal;text-align:center;line-height:125%;writing-mode:lr-tb;text-anchor:middle;fill:#333333;fill-opacity:1;stroke:none;stroke-width:1px;stroke-linecap:butt;stroke-linejoin:miter;stroke-opacity:1;display:inline;font-family:FreeSans"
       id="text3021" />
  </g>
</svg>
